# xmcd
#
# Track frame offsets:
#   150
#   17524
#   45595
#   59045
#   83580
#   104281
#   119625
#   141810
#   153437
#   165631
#   189384
#   212812
#   227624
#   252832
#   271550
#   310450
#   326102
#   338456
#
# Disc length: 4730 seconds
#
# Revision: 0
# Processed by: cddbd v1.5.1PL0 Copyright (c) Steve Scherf et al.
# Submitted via: 1.0.1952.12076 1.0.1952.12076
#
DISCID=f3127812
DTITLE=B.B. King - The Best Of Black Blues
DYEAR=2004
DGENRE=Blues
TTITLE0=To Know You Is Yo Love You
TTITLE1=Sweet Sixteen
TTITLE2=Rock Me Baby
TTITLE3=The Trill Is Gone
TTITLE4=Hummingbird
TTITLE5=I Got Some Help I Don't Need
TTITLE6=Chains And Things
TTITLE7=Paying The Cost To Be The Boss
TTITLE8=How Blue Can You Get
TTITLE9=Ghetto Woman
TTITLE10=Don't Ansver The Door
TTITLE11=Ain't Nobody Home
TTITLE12=So Excited
TTITLE13=Guess Who
TTITLE14=Why I Sing The Blues
TTITLE15=Five Long Years
TTITLE16=Sugar Mama
TTITLE17=Blue Shadows
EXTD=
EXTT0=
EXTT1=
EXTT2=
EXTT3=
EXTT4=
EXTT5=
EXTT6=
EXTT7=
EXTT8=
EXTT9=
EXTT10=
EXTT11=
EXTT12=
EXTT13=
EXTT14=
EXTT15=
EXTT16=
EXTT17=
PLAYORDER=
